<?xml version="1.0" encoding="utf-8"?>
<!-- Generator: Adobe Illustrator 16.0.0, SVG Export Plug-In . SVG Version: 6.00 Build 0)  -->
<!DOCTYPE svg PUBLIC "-//W3C//DTD SVG 1.1//EN" "http://www.w3.org/Graphics/SVG/1.1/DTD/svg11.dtd">
<svg version="1.1" id="Layer_1" xmlns="http://www.w3.org/2000/svg" xmlns:xlink="http://www.w3.org/1999/xlink" x="0px" y="0px"
	 width="184.252px" height="141.732px" viewBox="0 0 184.252 141.732" enable-background="new 0 0 184.252 141.732"
	 xml:space="preserve">
<g>
	<g>
		<path fill="none" stroke="#66AFFF" stroke-miterlimit="10" d="M137.426,17.366h9.632c0,0-3.553-9.781,9.155-6.912
			c2.459-4.781,4.646-7.555,8.607-7.144c3.963,0.409,10.59,6.811,6.013,11.389c10.795-0.138,10.898,0.31,10.898,0.31"/>
		<path fill="none" stroke="#66AFFF" stroke-miterlimit="10" d="M2.08,65.286c0,0-0.317-0.29,8.647-0.176
			c-3.801-3.801,1.63-9.154,4.921-9.494c3.291-0.342,5.071,0.119,7.114,4.092c10.555-2.387,7.566,5.659,7.566,5.659h9.097"/>
	</g>
	<g>
		<path opacity="0.2" fill="#808080" d="M24.542,126.921c1.933,0,3.5-1.567,3.5-3.5s-1.567-3.5-3.5-3.5s-3.5,1.567-3.5,3.5
			S22.61,126.921,24.542,126.921z M24.542,121.087c1.289,0,2.333,1.045,2.333,2.334s-1.044,2.334-2.333,2.334
			c-1.288,0-2.333-1.045-2.333-2.334S23.254,121.087,24.542,121.087z"/>
		<path opacity="0.2" fill="#808080" d="M162.637,94.384c1.329,0,2.406-1.078,2.406-2.406c0-1.33-1.077-2.408-2.406-2.408
			c-1.328,0-2.406,1.078-2.406,2.408C160.231,93.306,161.309,94.384,162.637,94.384z M162.637,90.372
			c0.886,0,1.604,0.719,1.604,1.605c0,0.885-0.719,1.605-1.604,1.605s-1.604-0.721-1.604-1.605
			C161.034,91.091,161.751,90.372,162.637,90.372z"/>
		<path opacity="0.2" fill="#808080" d="M47.562,41.841c1.013,0,1.834-0.821,1.834-1.833c0-1.013-0.821-1.834-1.834-1.834
			c-1.012,0-1.833,0.821-1.833,1.834C45.729,41.02,46.55,41.841,47.562,41.841z M47.562,38.785c0.676,0,1.223,0.547,1.223,1.223
			c0,0.675-0.547,1.223-1.223,1.223c-0.674,0-1.222-0.548-1.222-1.223C46.34,39.332,46.888,38.785,47.562,38.785z"/>
		<g opacity="0.2">
			<path fill="#808080" d="M152.562,53.117v-3.244h-3.12v-0.83h3.12v-3.271h0.884v3.271h3.12v0.83h-3.12v3.244H152.562z"/>
		</g>
		<g opacity="0.2">
			<path fill="#808080" d="M17.178,80.848v-2.881h-2.571V77.23h2.571v-2.906h0.729v2.906h2.572v0.736h-2.572v2.881H17.178z"/>
		</g>
	</g>
	<g>
		<g>
			<rect x="66.426" y="69.866" fill="#1377E5" width="32" height="68"/>
			<rect x="70.825" y="71.912" fill="#FFFFFF" width="5.862" height="3.93"/>
			<rect x="80.592" y="71.912" fill="#FFFFFF" width="5.861" height="3.93"/>
			<rect x="90.36" y="71.912" fill="#FFFFFF" width="5.861" height="3.93"/>
			<rect x="70.825" y="79.771" fill="#FFFFFF" width="5.862" height="3.931"/>
			<rect x="80.592" y="79.771" fill="#FFFFFF" width="5.861" height="3.931"/>
			<rect x="90.36" y="79.771" fill="#FFFFFF" width="5.861" height="3.931"/>
			<rect x="80.592" y="87.634" fill="#FFFFFF" width="5.861" height="3.931"/>
			<rect x="90.36" y="87.634" fill="#FFFFFF" width="5.861" height="3.931"/>
			<rect x="80.592" y="95.495" fill="#FFFFFF" width="5.861" height="3.933"/>
			<rect x="90.36" y="95.495" fill="#FFFFFF" width="5.861" height="3.933"/>
			<rect x="80.592" y="103.355" fill="#FFFFFF" width="5.861" height="3.93"/>
			<rect x="90.36" y="103.355" fill="#FFFFFF" width="5.861" height="3.93"/>
			<rect x="80.592" y="111.219" fill="#FFFFFF" width="5.861" height="3.929"/>
			<rect x="90.36" y="111.219" fill="#FFFFFF" width="5.861" height="3.929"/>
			<rect x="80.592" y="119.08" fill="#FFFFFF" width="5.861" height="3.929"/>
			<rect x="90.36" y="119.08" fill="#FFFFFF" width="5.861" height="3.929"/>
			<rect x="80.592" y="126.94" fill="#FFFFFF" width="5.861" height="3.931"/>
			<rect x="90.36" y="126.94" fill="#FFFFFF" width="5.861" height="3.931"/>
			<path fill="#FFFFFF" stroke="#FFFFFF" stroke-width="3" stroke-miterlimit="10" d="M70.825,91.564v43.24H39.57v-43.24h3.906
				v-1.967c0-6.503,5.257-11.792,11.722-11.792c6.463,0,11.72,5.289,11.72,11.792"/>
		</g>
		<path fill="#808080" stroke="#FFFFFF" stroke-width="2" stroke-miterlimit="10" d="M148.965,134.805V88.34l-23.44-10.884V54.224
			h-7.814v-9.825h13.969L92.314,16.44L52.949,44.398h13.969v19.652h-3.906V76c-1.768-1.033-3.747-1.719-5.861-1.985V67.98h-3.906
			v6.034c-7.056,0.89-12.67,6.521-13.553,13.619h-4.028v47.171H21.754v3.928h141.119v-3.928H148.965z M65.257,40.463l27.057-19.209
			l27.055,19.209h-5.565v13.761h-27.35v9.827H70.825V40.463H65.257z M70.825,91.564v43.24H39.57v-43.24h3.906v-1.967
			c0-6.503,5.257-11.792,11.722-11.792c6.463,0,11.72,5.289,11.72,11.792 M100.127,67.98v66.824H74.732v-3.934h1.955v-3.931h-1.955
			v-3.932h1.955v-3.929h-1.955v-3.933h1.955v-3.929h-1.955v-3.934h1.955v-3.93h-1.955v-3.93h1.955v-3.931h-1.955v-3.931h1.955
			v-3.931h-5.985c-0.399-3.201-1.767-6.096-3.786-8.401V67.979h33.212V67.98z M109.897,134.805h-5.86V64.051H90.36v-5.898h31.257
			V75.84h-11.72V134.805z M113.803,134.805v-10.735l24.003,10.735H113.803z M145.06,133.742l-31.257-13.977v-7.488l31.257,13.977
			V133.742z M145.06,121.953l-31.257-13.977v-7.492l31.257,13.976V121.953z M145.06,110.157l-31.257-13.977v-7.491l31.257,13.979
			V110.157z M145.06,98.367l-31.257-13.977v-4.619h7.384l23.873,11.084V98.367z M145.06,98.367"/>
		<g>
			
				<rect x="43.476" y="111.219" fill="#808080" stroke="#FFFFFF" stroke-width="2" stroke-miterlimit="10" width="23.441" height="3.929"/>
			
				<rect x="43.476" y="126.94" fill="#808080" stroke="#FFFFFF" stroke-width="2" stroke-miterlimit="10" width="23.441" height="3.931"/>
			
				<rect x="43.476" y="119.08" fill="#808080" stroke="#FFFFFF" stroke-width="2" stroke-miterlimit="10" width="23.441" height="3.929"/>
			
				<rect x="43.476" y="95.495" fill="#808080" stroke="#FFFFFF" stroke-width="2" stroke-miterlimit="10" width="23.441" height="3.933"/>
			
				<rect x="43.476" y="103.355" fill="#808080" stroke="#FFFFFF" stroke-width="2" stroke-miterlimit="10" width="23.441" height="3.93"/>
			
				<rect x="74.732" y="38.501" fill="#808080" stroke="#FFFFFF" stroke-width="2" stroke-miterlimit="10" width="3.909" height="13.758"/>
			
				<rect x="74.732" y="56.188" fill="#808080" stroke="#FFFFFF" stroke-width="2" stroke-miterlimit="10" width="3.909" height="3.933"/>
			
				<rect x="82.545" y="32.604" fill="#808080" stroke="#FFFFFF" stroke-width="2" stroke-miterlimit="10" width="3.908" height="9.827"/>
			
				<rect x="82.545" y="46.362" fill="#808080" stroke="#FFFFFF" stroke-width="2" stroke-miterlimit="10" width="3.908" height="3.929"/>
			
				<rect x="98.173" y="32.604" fill="#808080" stroke="#FFFFFF" stroke-width="2" stroke-miterlimit="10" width="3.908" height="9.827"/>
			
				<rect x="98.173" y="46.362" fill="#808080" stroke="#FFFFFF" stroke-width="2" stroke-miterlimit="10" width="3.908" height="3.929"/>
			
				<rect x="105.989" y="36.535" fill="#808080" stroke="#FFFFFF" stroke-width="2" stroke-miterlimit="10" width="3.908" height="5.896"/>
			
				<rect x="105.989" y="46.362" fill="#808080" stroke="#FFFFFF" stroke-width="2" stroke-miterlimit="10" width="3.908" height="3.929"/>
			
				<rect x="90.36" y="26.71" fill="#808080" stroke="#FFFFFF" stroke-width="2" stroke-miterlimit="10" width="3.907" height="11.791"/>
			
				<rect x="90.36" y="42.429" fill="#808080" stroke="#FFFFFF" stroke-width="2" stroke-miterlimit="10" width="3.907" height="3.934"/>
		</g>
	</g>
</g>
</svg>
