<?xml version="1.0" encoding="utf-8"?>
<!-- Generator: Adobe Illustrator 16.0.0, SVG Export Plug-In . SVG Version: 6.00 Build 0)  -->
<!DOCTYPE svg PUBLIC "-//W3C//DTD SVG 1.1//EN" "http://www.w3.org/Graphics/SVG/1.1/DTD/svg11.dtd">
<svg version="1.1" id="Layer_1" xmlns="http://www.w3.org/2000/svg" xmlns:xlink="http://www.w3.org/1999/xlink" x="0px" y="0px"
	 width="184.252px" height="141.732px" viewBox="0 0 184.252 141.732" enable-background="new 0 0 184.252 141.732"
	 xml:space="preserve">
<g>
	<path fill="none" stroke="#66AFFF" stroke-miterlimit="10" d="M149.426,90.366h6.662c0,0-2.506-7.551,6.459-5.526
		c1.734-3.373,3.277-5.655,6.072-5.365c2.795,0.288,7.471,4.642,4.242,7.873c7.615-0.098,7.754,0.788,7.754,0.788"/>
	<path fill="none" stroke="#66AFFF" stroke-miterlimit="10" d="M3.426,52.366h6.662c0,0-2.506-7.551,6.459-5.526
		c1.734-3.373,3.277-5.655,6.072-5.365c2.795,0.288,7.471,4.642,4.242,7.873c7.615-0.098,7.754,0.788,7.754,0.788"/>
	<g>
		<path opacity="0.2" fill="#808080" d="M144.593,39.766c0-1.33-1.078-2.406-2.406-2.406c-1.33,0-2.408,1.076-2.408,2.406
			c0,1.328,1.078,2.406,2.408,2.406C143.515,42.172,144.593,41.094,144.593,39.766z M140.581,39.766
			c0-0.887,0.719-1.605,1.605-1.605c0.885,0,1.605,0.719,1.605,1.605c0,0.885-0.721,1.604-1.605,1.604
			C141.3,41.369,140.581,40.65,140.581,39.766z"/>
		<path opacity="0.2" fill="#808080" d="M50.627,54.711c0-1.014-0.822-1.834-1.834-1.834s-1.834,0.82-1.834,1.834
			c0,1.012,0.822,1.832,1.834,1.832S50.627,55.723,50.627,54.711z M47.57,54.711c0-0.676,0.547-1.223,1.223-1.223
			s1.223,0.547,1.223,1.223c0,0.674-0.547,1.221-1.223,1.221S47.57,55.385,47.57,54.711z"/>
		<g opacity="0.2">
			<path fill="#808080" d="M152.897,73.994h-3.649v3.51h-0.934v-3.51h-3.681v-0.995h3.681V69.49h0.934v3.509h3.649V73.994z"/>
		</g>
		<g opacity="0.2">
			<path fill="#808080" d="M41.858,28.055h-3.244v3.119h-0.83v-3.119h-3.271V27.17h3.271v-3.119h0.83v3.119h3.244V28.055z"/>
		</g>
		<g opacity="0.2">
			<path fill="#808080" d="M41.447,101.86h-2.881v2.571H37.83v-2.571h-2.906v-0.729h2.906V98.56h0.736v2.572h2.881V101.86z"/>
		</g>
	</g>
	<ellipse opacity="0.1" fill="#808080" cx="98.566" cy="136.173" rx="43.619" ry="2.56"/>
	<g>
		<g>
			<g>
				<path fill="#808080" d="M132.426,114.866c0,6.075-4.925,11-11,11h-54c-6.075,0-11-4.925-11-11v-73c0-6.075,4.925-11,11-11h54
					c6.075,0,11,4.925,11,11V114.866z M130.426,41.866c0-4.971-4.029-9-9-9h-54c-4.971,0-9,4.029-9,9v73c0,4.971,4.029,9,9,9h54
					c4.971,0,9-4.029,9-9V41.866z"/>
			</g>
			<path fill="#808080" d="M140.121,115.008c-0.592-0.592-1.499-0.142-1.499-0.142h-7.063h-8.388H76.268
				c0,0-1.165-0.571-1.521-0.113c-0.439,0.565-0.588,0.83-0.588,1.579c0,4.821-3.732,8.5-8.732,8.591v0.942h66v-0.942
				c0,0,0.177,0.008,0.232,0.008c4.879,0,8.867-3.721,8.867-8.599C140.525,116.054,140.7,115.586,140.121,115.008z"/>
		</g>
		<path fill="#808080" d="M140.121,115.008c-0.592-0.592-1.499-0.142-1.499-0.142h-7.063h-8.388H76.268c0,0-1.165-0.571-1.521-0.113
			c-0.439,0.565-0.588,0.83-0.588,1.579c0,4.821-3.732,8.5-8.732,8.591v0.942h66v-0.942c0,0,0.177,0.008,0.232,0.008
			c4.879,0,8.867-3.721,8.867-8.599C140.525,116.054,140.7,115.586,140.121,115.008z"/>
		<path fill-rule="evenodd" clip-rule="evenodd" fill="#1377E5" d="M73.643,122.932c1.928-1.696,2.4-4.691,2.604-7l61.975-0.125
			c-0.607,3.595-2.381,6.863-5.412,6.863L73.643,122.932z"/>
	</g>
	<g>
		<g>
			<rect x="71.553" y="99.273" fill="#1377E5" width="15.807" height="7.025"/>
			<path fill="#808080" stroke="#FFFFFF" stroke-width="1.5" stroke-miterlimit="10" d="M90.861,95.77H68.049v14.027h22.813V95.77z
				 M87.359,106.299H71.553v-7.025h15.807V106.299z M87.359,99.273"/>
		</g>
		<path fill="#808080" stroke="#FFFFFF" stroke-width="1.5" stroke-miterlimit="10" d="M96.133,95.77
			c-0.977,0-1.756,0.779-1.756,1.758c0,0.965,0.779,1.746,1.756,1.746h8.776c0.97,0,1.749-0.781,1.749-1.746
			c0-0.979-0.779-1.758-1.749-1.758H96.133L96.133,95.77z M96.133,95.77"/>
		<path fill="#808080" stroke="#FFFFFF" stroke-width="1.5" stroke-miterlimit="10" d="M96.133,101.028
			c-0.977,0-1.756,0.791-1.756,1.756c0,0.967,0.779,1.757,1.756,1.757h12.283c0.969,0,1.756-0.79,1.756-1.757
			c0-0.965-0.787-1.756-1.756-1.756H96.133L96.133,101.028z M96.133,101.028"/>
		<path fill="#808080" stroke="#FFFFFF" stroke-width="1.5" stroke-miterlimit="10" d="M96.133,106.299
			c-0.977,0-1.756,0.777-1.756,1.744c0,0.977,0.779,1.754,1.756,1.754h17.555c0.967,0,1.745-0.777,1.745-1.754
			c0-0.967-0.778-1.744-1.745-1.744H96.133L96.133,106.299z M96.133,106.299"/>
	</g>
	<g>
		<path fill="#808080" stroke="#FFFFFF" stroke-width="0.75" stroke-miterlimit="10" d="M69.218,91.433h51.849
			c0.707,0,1.275-0.517,1.275-1.15V53.53c0-0.633-0.568-1.149-1.275-1.149H91.742c-0.705,0-1.273,0.517-1.273,1.149
			c0,0.636,0.568,1.151,1.273,1.151h10.2v3.062c0,0.63,0.57,1.147,1.274,1.147c0.707,0,1.273-0.518,1.273-1.147v-3.062h15.303
			v18.374H104.49v-6.128c0-0.631-0.566-1.146-1.273-1.146c-0.704,0-1.274,0.515-1.274,1.146v1.533H85.795
			c-0.704,0-1.278,0.515-1.278,1.147c0,0.637,0.574,1.148,1.278,1.148h16.147v13.784c0,0.633,0.57,1.148,1.274,1.148
			c0.707,0,1.273-0.516,1.273-1.148v-9.189h15.303v13.784H70.492V70.757h6.803v3.066c0,0.629,0.568,1.146,1.274,1.146
			s1.272-0.517,1.272-1.146v-4.215c0-0.633-0.566-1.147-1.272-1.147h-8.077V45.49h11.052v7.66c0,0.633,0.567,1.146,1.275,1.146
			c0.706,0,1.274-0.514,1.274-1.146v-8.809c0-0.634-0.568-1.146-1.274-1.146H69.218c-0.704,0-1.274,0.512-1.274,1.146v45.94
			C67.943,90.916,68.514,91.433,69.218,91.433L69.218,91.433z M69.218,91.433"/>
	</g>
	<g>
		<g>
			<path fill="#808080" d="M114.117,31.521v13.348l4.133-2.93l4.134,2.93V31.521H114.117z M114.117,31.521"/>
		</g>
	</g>
</g>
</svg>
