<?xml version="1.0" encoding="utf-8"?>
<!-- Generator: Adobe Illustrator 16.0.0, SVG Export Plug-In . SVG Version: 6.00 Build 0)  -->
<!DOCTYPE svg PUBLIC "-//W3C//DTD SVG 1.1//EN" "http://www.w3.org/Graphics/SVG/1.1/DTD/svg11.dtd">
<svg version="1.1" id="Layer_1" xmlns="http://www.w3.org/2000/svg" xmlns:xlink="http://www.w3.org/1999/xlink" x="0px" y="0px"
	 width="184.252px" height="141.732px" viewBox="0 0 184.252 141.732" enable-background="new 0 0 184.252 141.732"
	 xml:space="preserve">
<g>
	<g>
		<g>
			<polygon fill="#FFFFFF" points="144.314,84.562 146.986,82.949 149.356,82.619 150.637,83.542 151.844,86.956 160.219,115.16 
				160.587,116.392 159.157,123.748 153.595,117.5 144.421,86.318 			"/>
			<path fill="#082947" d="M146.544,98.688"/>
			<path fill="none" d="M147.214,91.619l7.308,24.289c0.245-0.146,0.508-0.269,0.785-0.352c0.568-0.168,1.157-0.186,1.699-0.059
				l-5.704-18.957c-0.083-0.283,0.076-0.58,0.359-0.666c0.28-0.088,0.582,0.073,0.669,0.355l5.7,18.957
				c0.386-0.406,0.884-0.718,1.454-0.887c0.275-0.084,0.563-0.13,0.847-0.145l-7.309-24.287l-2.391,0.723l0.873,2.904
				c0.085,0.283-0.077,0.582-0.356,0.668c-0.143,0.044-0.287,0.025-0.41-0.044c-0.12-0.063-0.216-0.173-0.257-0.313l-0.875-2.906
				L147.214,91.619z M149.607,90.9"/>
			<path fill="#FFFFFF" d="M146.906,90.593l-0.458-1.525l5.807-1.747l0.458,1.524L146.906,90.593z M152.712,88.845"/>
			<path fill="#808080" d="M148.238,98.737l2.677,8.892l2.813,9.354c0,0,0,0.002,0.002,0.003c0.001,0.006,0.005,0.011,0.006,0.015
				c0.02,0.061,0.052,0.117,0.089,0.162l3.436,4.189c0.002,0.002,0.001,0.007,0.001,0.002l2.454,2.99
				c0.043,0.055,0.097,0.1,0.158,0.131c0.12,0.067,0.268,0.085,0.407,0.043c0.208-0.063,0.355-0.244,0.377-0.461l0.396-3.842
				l-0.002-0.003l0.554-5.388c0.006-0.063,0.001-0.125-0.015-0.186c-0.002-0.008-0.003-0.014-0.005-0.02c0,0,0-0.002-0.002-0.004
				l-5.488-18.24l-2.203-7.328l-0.768-2.545c-0.084-0.285-0.383-0.445-0.666-0.359l-6.321,1.902l-0.872-2.908
				c-0.258-0.848,0.225-1.746,1.072-2l2.735-0.82c0.846-0.258,1.745,0.225,1.997,1.072l0.954,3.184
				c0.084,0.284,0.384,0.447,0.666,0.361c0.282-0.088,0.445-0.385,0.358-0.665l-0.952-3.188c-0.427-1.413-1.921-2.219-3.333-1.794
				l-2.734,0.825c-1.414,0.426-2.217,1.918-1.793,3.336l1.798,5.969L148.238,98.737z M154.982,116.888
				c0.193-0.133,0.405-0.236,0.636-0.305c0.683-0.207,1.4-0.088,1.914,0.318c0.138,0.105,0.317,0.143,0.485,0.092
				c0.167-0.053,0.3-0.178,0.353-0.346c0.207-0.621,0.739-1.115,1.424-1.321c0.228-0.069,0.462-0.101,0.694-0.099l-0.46,4.517
				l-2.167,0.653L154.982,116.888z M155.307,115.556c-0.277,0.083-0.54,0.205-0.785,0.352l-7.308-24.289l2.393-0.719l0.875,2.906
				c0.041,0.141,0.137,0.25,0.257,0.313c0.123,0.069,0.268,0.088,0.41,0.044c0.279-0.086,0.441-0.385,0.356-0.668l-0.873-2.904
				l2.391-0.723l7.309,24.287c-0.283,0.015-0.571,0.061-0.847,0.145c-0.57,0.169-1.068,0.48-1.454,0.887l-5.7-18.957
				c-0.087-0.282-0.389-0.443-0.669-0.355c-0.283,0.086-0.442,0.383-0.359,0.666l5.704,18.957
				C156.464,115.371,155.875,115.388,155.307,115.556L155.307,115.556z M146.448,89.068l5.807-1.747l0.458,1.524l-5.808,1.75
				L146.448,89.068z M159.722,122.669l-1.125-1.375l1.309-0.396L159.722,122.669z M159.722,122.669l-1.125-1.375l1.309-0.396
				L159.722,122.669z M159.906,120.898"/>
		</g>
		<g opacity="0.2">
			<path fill="#808080" d="M154.298,62.139v2.042h1.964v0.521h-1.964v2.061h-0.557v-2.061h-1.964v-0.521h1.964v-2.042H154.298z"/>
		</g>
		<g>
			<path opacity="0.2" fill="#808080" d="M149.086,28.382c-1.933,0-3.5,1.567-3.5,3.5s1.567,3.5,3.5,3.5s3.5-1.567,3.5-3.5
				S151.019,28.382,149.086,28.382z M149.086,34.216c-1.289,0-2.333-1.045-2.333-2.334s1.045-2.334,2.333-2.334
				c1.288,0,2.333,1.045,2.333,2.334S150.375,34.216,149.086,34.216z"/>
			<path opacity="0.2" fill="#808080" d="M18.17,50.892c-1.329,0-2.406,1.078-2.406,2.406c0,1.329,1.077,2.407,2.406,2.407
				c1.328,0,2.406-1.078,2.406-2.407C20.576,51.97,19.498,50.892,18.17,50.892z M18.17,54.903c-0.886,0-1.604-0.718-1.604-1.604
				c0-0.886,0.718-1.605,1.604-1.605c0.885,0,1.604,0.72,1.604,1.605C19.773,54.185,19.055,54.903,18.17,54.903z"/>
			<path opacity="0.2" fill="#808080" d="M136.531,115.549c-1.013,0-1.833,0.821-1.833,1.833c0,1.013,0.821,1.834,1.833,1.834
				c1.012,0,1.833-0.821,1.833-1.834C138.364,116.371,137.543,115.549,136.531,115.549z M136.531,118.605
				c-0.675,0-1.223-0.547-1.223-1.223c0-0.675,0.547-1.223,1.223-1.223c0.674,0,1.222,0.548,1.222,1.223
				C137.753,118.058,137.206,118.605,136.531,118.605z"/>
			<g opacity="0.2">
				<path fill="#808080" d="M6.182,81.437v3.244h3.12v0.829h-3.12v3.272H5.298V85.51h-3.12v-0.829h3.12v-3.244H6.182z"/>
			</g>
			<g opacity="0.2">
				<path fill="#808080" d="M77.298,23.3v2.881h2.571v0.736h-2.571v2.906H76.57v-2.906h-2.572v-0.736h2.572V23.3H77.298z"/>
			</g>
		</g>
	</g>
	<path fill="none" stroke="#66AFFF" stroke-miterlimit="10" d="M150.897,62.853h6.521c0,0-2.506-7.295,6.459-5.27
		c1.734-3.373,3.277-5.527,6.072-5.237c2.795,0.288,7.471,4.706,4.242,7.937c7.616-0.098,7.825,0.563,7.825,0.563"/>
	<path fill="none" stroke="#66AFFF" stroke-miterlimit="10" d="M6.357,12.602c0,0-0.414-0.375,8.551-0.261
		c-3.801-3.801,1.581-9.196,4.872-9.536c3.291-0.342,5.047,0.268,7.09,4.241c10.555-2.387,7.542,5.808,7.542,5.808h9.485"/>
	<g>
		<g>
			<path fill-rule="evenodd" clip-rule="evenodd" fill="#808080" d="M84.807,125.021c-13.675,0-27.35,0.002-41.024-0.002
				c-6.526-0.003-10.584-4.069-10.585-10.615c-0.005-25.289-0.007-50.579,0.001-75.869c0.002-5.409,3.387-9.478,8.472-10.248
				c2.045-0.31,2.163-0.215,2.166,1.793c0.004,2.689,0.069,5.381-0.028,8.067c-0.048,1.338,0.338,1.741,1.711,1.735
				c11.042-0.056,22.085-0.032,33.129-0.032c15.104,0,30.21-0.026,45.314,0.039c1.611,0.007,2.029-0.47,1.963-2.011
				c-0.118-2.74,0.031-5.493-0.06-8.236c-0.044-1.293,0.472-1.516,1.606-1.433c4.789,0.346,8.766,4.365,9.042,9.219
				c0.022,0.399,0.02,0.8,0.02,1.201c0.001,25.233,0.005,50.465-0.003,75.698c-0.002,5.617-3.063,9.572-8.138,10.524
				c-0.834,0.156-1.706,0.161-2.561,0.161C112.157,125.023,98.483,125.021,84.807,125.021z"/>
			<path fill-rule="evenodd" clip-rule="evenodd" fill="#FFFFFF" d="M84.837,123.315c-13.847,0-27.694,0.022-41.542-0.011
				c-5.769-0.014-9.67-5.168-8.02-10.479c0.955-3.074,3.689-5.442,6.902-5.586c1.556-0.069,1.686-0.684,1.683-1.961
				c-0.033-20.369-0.023-40.739-0.023-61.11c0-2.602,0.001-2.602,2.664-2.602c25.749,0,51.498,0.017,77.247-0.04
				c1.707-0.003,2.183,0.387,2.177,2.15c-0.068,20.484-0.031,40.969-0.069,61.454c-0.003,1.428,0.219,2.009,1.881,2.136
				c4.145,0.32,7.238,4.132,7.069,8.3c-0.173,4.238-3.595,7.68-7.912,7.72c-7.781,0.075-15.563,0.028-23.346,0.029
				C97.312,123.318,91.074,123.316,84.837,123.315z"/>
			<path fill-rule="evenodd" clip-rule="evenodd" fill="#1377E5" d="M134.273,38.919c-0.003-2.307-0.376-4.285-3.376-6.19
				c0,0.011,0,0.021,0,0.032c0-0.835-1.526-1.352-2.085-1.607c-0.307-0.203-0.516-0.254-1.049-0.254
				c-0.877,0-0.604,1.642-0.607,2.42c-0.073,15.036-0.007,30.072-0.007,45.107c0,8.805,0.07,17.609-0.013,26.413
				c-0.014,1.41,0.767,1.624,1.579,1.693c0.009,0.002,0.023,0.01,0.032,0.011c1.695,0.15,3.114,1.173,4.466,2.64
				c-0.005-0.02,0.229-0.036,0.225-0.054c0.333,0.291,0.46,0.561,1.46,0.803c0-0.669,0-1.279,0-1.889c0-17.038,0-34.076,0-51.115
				C134.897,50.925,134.277,44.922,134.273,38.919z"/>
			<path fill-rule="evenodd" clip-rule="evenodd" fill="#1377E5" d="M34.521,38.919c0.002-2.307,1.376-4.285,3.376-6.19
				c0,0.011,0,0.021,0,0.032c0-0.835,1.656-1.352,2.216-1.607c0.307-0.203,0.583-0.254,1.115-0.254c0.952,0,0.636,1.642,0.64,2.42
				c0.073,15.036,0.021,30.072,0.021,45.107c0,8.805-0.061,17.609,0.023,26.413c0.012,1.41-0.765,1.624-1.577,1.693
				c-0.009,0.002-0.021,0.01-0.03,0.011c-1.694,0.15-3.113,1.173-4.465,2.64c0.006-0.02-0.358-0.036-0.354-0.054
				c-0.334,0.291,0.41,0.561-1.59,0.803c0-0.669,0-1.279,0-1.889c0-17.038,0-34.076,0-51.115
				C33.897,50.925,34.518,44.922,34.521,38.919z"/>
		</g>
		<g>
			<g>
				<g>
					<rect x="76.879" y="102.861" fill="#1377E5" width="12.977" height="5.768"/>
					<path fill="#808080" stroke="#FFFFFF" stroke-width="1.5" stroke-miterlimit="10" d="M74.002,111.502h18.731V99.985H74.002
						V111.502z M76.879,102.861h12.977v5.768H76.879V102.861z M76.879,102.861"/>
				</g>
				<path fill="#808080" stroke="#FFFFFF" stroke-width="1.5" stroke-miterlimit="10" d="M69.674,99.985h-7.205
					c-0.796,0-1.437,0.641-1.437,1.443c0,0.793,0.641,1.433,1.437,1.433h7.205c0.803,0,1.442-0.64,1.442-1.433
					C71.117,100.625,70.477,99.985,69.674,99.985L69.674,99.985z M69.674,99.985"/>
				<path fill="#808080" stroke="#FFFFFF" stroke-width="1.5" stroke-miterlimit="10" d="M69.674,104.303H59.59
					c-0.795,0-1.442,0.648-1.442,1.441s0.647,1.441,1.442,1.441h10.084c0.803,0,1.442-0.648,1.442-1.441
					S70.477,104.303,69.674,104.303L69.674,104.303z M69.674,104.303"/>
				<path fill="#808080" stroke="#FFFFFF" stroke-width="1.5" stroke-miterlimit="10" d="M69.674,108.628H55.262
					c-0.794,0-1.434,0.639-1.434,1.433c0,0.802,0.64,1.441,1.434,1.441h14.412c0.803,0,1.442-0.64,1.442-1.441
					C71.117,109.267,70.477,108.628,69.674,108.628L69.674,108.628z M69.674,108.628"/>
			</g>
			<g>
				<path fill="#808080" stroke="#FFFFFF" stroke-miterlimit="10" d="M113.483,48.222H55.26c-0.793,0-1.432,0.644-1.432,1.433
					v45.853c0,0.789,0.639,1.433,1.432,1.433h32.93c0.792,0,1.432-0.644,1.432-1.433c0-0.794-0.64-1.438-1.432-1.438H76.736V90.25
					c0-0.787-0.64-1.431-1.431-1.431c-0.794,0-1.431,0.644-1.431,1.431v3.819H56.69V71.146h17.185v7.646
					c0,0.786,0.637,1.43,1.431,1.43c0.791,0,1.431-0.644,1.431-1.43V76.88h18.133c0.791,0,1.436-0.644,1.436-1.434
					c0-0.793-0.645-1.432-1.436-1.432H76.736V56.82c0-0.79-0.64-1.434-1.431-1.434c-0.794,0-1.431,0.644-1.431,1.434v11.463H56.69
					V51.087h55.362v22.928h-7.64V70.19c0-0.787-0.637-1.43-1.43-1.43s-1.431,0.643-1.431,1.43v5.257c0,0.79,0.638,1.434,1.431,1.434
					h9.069v28.655H99.641v-9.554c0-0.791-0.638-1.432-1.432-1.432c-0.792,0-1.431,0.641-1.431,1.432v10.986
					c0,0.791,0.639,1.429,1.431,1.429h15.273c0.791,0,1.432-0.638,1.432-1.429V49.655C114.915,48.866,114.274,48.222,113.483,48.222
					L113.483,48.222z M113.483,48.222"/>
			</g>
		</g>
		<g>
			<path fill="#FFFFFF" stroke="#FFFFFF" stroke-width="0.5" stroke-miterlimit="10" d="M89.667,53.867l5.867-1.201l0.455,2.227
				c0.061,0.297,0.354,0.49,0.651,0.431c0.298-0.062,0.491-0.354,0.431-0.652l-0.454-2.226l1.104-0.227l0.225,1.11
				c0.063,0.298,0.356,0.491,0.653,0.431c0.298-0.063,0.492-0.354,0.431-0.653l-0.226-1.109l1.146-0.233l0.455,2.225
				c0.06,0.298,0.354,0.49,0.651,0.432c0.297-0.061,0.491-0.354,0.431-0.652l-0.454-2.226l1.104-0.228l0.227,1.11
				c0.062,0.3,0.354,0.492,0.651,0.433c0.299-0.063,0.493-0.355,0.432-0.654l-0.227-1.109l1.104-0.227l0.453,2.227
				c0.062,0.298,0.354,0.492,0.652,0.432c0.298-0.063,0.492-0.355,0.432-0.652l-0.454-2.225l1.146-0.236l0.227,1.109
				c0.062,0.299,0.354,0.492,0.652,0.433c0.297-0.063,0.491-0.354,0.431-0.655l-0.227-1.108l1.104-0.225l0.454,2.226
				c0.061,0.297,0.354,0.49,0.651,0.43c0.298-0.061,0.491-0.355,0.432-0.652l-0.455-2.225l3.335-0.684l0.681,3.336l-2.225,0.456
				c-0.299,0.06-0.492,0.354-0.431,0.653c0.061,0.296,0.354,0.491,0.65,0.432l2.226-0.456l0.226,1.104l-1.109,0.229
				c-0.299,0.062-0.492,0.353-0.431,0.651c0.06,0.298,0.354,0.492,0.651,0.431l1.109-0.226l0.232,1.143l-2.224,0.453
				c-0.298,0.063-0.492,0.356-0.431,0.653c0.061,0.298,0.354,0.493,0.651,0.432l2.226-0.455L115.187,59l-1.109,0.227
				c-0.298,0.062-0.492,0.355-0.431,0.653c0.061,0.296,0.354,0.493,0.651,0.431l1.109-0.228l0.226,1.104l-2.225,0.455
				c-0.298,0.063-0.491,0.355-0.431,0.653c0.062,0.297,0.354,0.491,0.651,0.431l2.225-0.455l0.235,1.148l-1.11,0.228
				c-0.298,0.06-0.492,0.354-0.432,0.651c0.063,0.298,0.354,0.492,0.653,0.432l1.109-0.227l0.225,1.104l-2.225,0.454
				c-0.298,0.063-0.491,0.354-0.431,0.653c0.061,0.296,0.354,0.491,0.652,0.431l2.225-0.455l1.197,5.873L89.667,53.867z"/>
			<g>
				<g>
					<path fill="#808080" stroke="#FFFFFF" stroke-width="0.5" stroke-miterlimit="10" d="M102.162,57.066
						c-0.217,0.043-0.39,0.215-0.43,0.437c-0.041,0.217,0.051,0.442,0.239,0.565l7.952,5.26c0.117,0.076,0.269,0.103,0.41,0.072
						c0.07-0.014,0.138-0.039,0.196-0.084c0.185-0.122,0.278-0.352,0.233-0.568l-1.346-6.603c-0.062-0.298-0.355-0.49-0.652-0.431
						L102.162,57.066L102.162,57.066z M103.693,57.88l4.752-0.971l0.97,4.755L103.693,57.88z M109.415,61.665"/>
					<path fill="#808080" stroke="#FFFFFF" stroke-width="0.5" stroke-miterlimit="10" d="M87.717,53.486
						c-0.045,0.217,0.051,0.441,0.234,0.567l30.504,20.167c0.124,0.082,0.276,0.107,0.416,0.079
						c0.071-0.016,0.138-0.046,0.197-0.086c0.189-0.124,0.277-0.351,0.233-0.566l-5.171-25.349
						c-0.061-0.299-0.354-0.492-0.652-0.432l-25.331,5.182C87.931,53.092,87.758,53.268,87.717,53.486L87.717,53.486z
						 M89.667,53.867l5.867-1.201l0.455,2.227c0.061,0.297,0.354,0.49,0.651,0.431c0.298-0.062,0.491-0.354,0.431-0.652
						l-0.454-2.226l1.104-0.227l0.225,1.11c0.063,0.298,0.356,0.491,0.653,0.431c0.298-0.063,0.492-0.354,0.431-0.653l-0.226-1.109
						l1.146-0.233l0.455,2.225c0.06,0.298,0.354,0.49,0.651,0.432c0.297-0.061,0.491-0.354,0.431-0.652l-0.454-2.226l1.104-0.228
						l0.227,1.11c0.062,0.3,0.354,0.492,0.651,0.433c0.299-0.063,0.493-0.355,0.432-0.654l-0.227-1.109l1.104-0.227l0.453,2.227
						c0.062,0.298,0.354,0.492,0.652,0.432c0.298-0.063,0.492-0.355,0.432-0.652l-0.454-2.225l1.146-0.236l0.227,1.109
						c0.062,0.299,0.354,0.492,0.652,0.433c0.297-0.063,0.491-0.354,0.431-0.655l-0.227-1.108l1.104-0.225l0.454,2.226
						c0.061,0.297,0.354,0.49,0.651,0.43c0.298-0.061,0.491-0.355,0.432-0.652l-0.455-2.225l3.335-0.684l0.681,3.336l-2.225,0.456
						c-0.299,0.06-0.492,0.354-0.431,0.653c0.061,0.296,0.354,0.491,0.65,0.432l2.226-0.456l0.226,1.104l-1.109,0.229
						c-0.299,0.062-0.492,0.353-0.431,0.651c0.06,0.298,0.354,0.492,0.651,0.431l1.109-0.226l0.232,1.143l-2.224,0.453
						c-0.298,0.063-0.492,0.356-0.431,0.653c0.061,0.298,0.354,0.493,0.651,0.432l2.226-0.455L115.187,59l-1.109,0.227
						c-0.298,0.062-0.492,0.355-0.431,0.653c0.061,0.296,0.354,0.493,0.651,0.431l1.109-0.228l0.226,1.104l-2.225,0.455
						c-0.298,0.063-0.491,0.355-0.431,0.653c0.062,0.297,0.354,0.491,0.651,0.431l2.225-0.455l0.235,1.148l-1.11,0.228
						c-0.298,0.06-0.492,0.354-0.432,0.651c0.063,0.298,0.354,0.492,0.653,0.432l1.109-0.227l0.225,1.104l-2.225,0.454
						c-0.298,0.063-0.491,0.354-0.431,0.653c0.061,0.296,0.354,0.491,0.652,0.431l2.225-0.455l1.197,5.873L89.667,53.867z
						 M117.954,72.564"/>
				</g>
			</g>
		</g>
		<g>
			<g>
				<path fill="#808080" d="M71.571,34.633c0.121-0.181,0.163-0.398,0.12-0.608c-0.042-0.215-0.168-0.399-0.35-0.518l-5.66-3.75
					c-0.373-0.247-0.878-0.144-1.126,0.229l-17.114,25.88c-0.118,0.18-0.159,0.397-0.117,0.609c0.043,0.213,0.168,0.397,0.346,0.516
					l5.664,3.75c0.374,0.246,0.879,0.144,1.123-0.228L71.571,34.633z M70.747,34.086c0.081,0.054,0.104,0.168,0.051,0.247
					l-16.92,25.582c-0.025,0.039-0.065,0.068-0.109,0.078c-0.048,0.009-0.096-0.003-0.136-0.027l-5.365-3.553
					c-0.039-0.027-0.068-0.066-0.077-0.115c-0.011-0.043,0.001-0.096,0.028-0.134l0.396-0.603l3.911,2.591
					c0.154,0.102,0.361,0.061,0.462-0.093c0.099-0.153,0.061-0.362-0.093-0.462l-3.912-2.593l0.805-1.217l2.517,1.67
					c0.154,0.1,0.362,0.06,0.463-0.094c0.104-0.154,0.063-0.362-0.094-0.465l-2.518-1.668l0.669-1.006l2.515,1.666
					c0.154,0.102,0.362,0.061,0.463-0.092c0.101-0.154,0.059-0.363-0.094-0.465l-2.517-1.666l0.638-0.965l2.517,1.667
					c0.152,0.103,0.36,0.061,0.458-0.094c0.105-0.153,0.063-0.359-0.093-0.462l-2.517-1.669l0.725-1.088l3.907,2.592
					c0.156,0.098,0.364,0.055,0.466-0.097c0.101-0.154,0.06-0.36-0.095-0.465l-3.91-2.588l0.498-0.753l2.641,1.753
					c0.153,0.101,0.361,0.058,0.466-0.096c0.103-0.153,0.06-0.359-0.094-0.463l-2.645-1.752l0.663-1.006l2.647,1.751
					c0.153,0.102,0.356,0.061,0.46-0.095c0.104-0.153,0.062-0.359-0.095-0.462l-2.642-1.753l0.639-0.965l2.642,1.754
					c0.155,0.1,0.36,0.06,0.462-0.095c0.101-0.154,0.059-0.362-0.094-0.463l-2.643-1.752l0.728-1.104l3.912,2.596
					c0.153,0.102,0.36,0.055,0.462-0.099c0.101-0.153,0.06-0.36-0.094-0.462l-3.912-2.591l0.806-1.217l2.52,1.668
					c0.153,0.101,0.358,0.058,0.459-0.094c0.104-0.153,0.061-0.36-0.093-0.464l-2.517-1.666l0.667-1.006l2.516,1.668
					c0.152,0.099,0.359,0.057,0.462-0.094c0.103-0.156,0.062-0.362-0.091-0.464L59.5,39.11l0.638-0.962l2.516,1.664
					c0.154,0.104,0.361,0.061,0.463-0.096c0.101-0.15,0.059-0.357-0.095-0.459l-2.517-1.67l0.721-1.089l3.912,2.591
					c0.152,0.102,0.36,0.06,0.463-0.096c0.102-0.152,0.059-0.358-0.096-0.461l-3.909-2.589l0.498-0.752l2.641,1.751
					c0.153,0.102,0.361,0.059,0.462-0.094c0.104-0.153,0.061-0.362-0.093-0.463l-2.645-1.753l0.665-1.005l2.646,1.75
					c0.154,0.103,0.36,0.059,0.463-0.094c0.101-0.152,0.059-0.36-0.095-0.463l-2.644-1.75l0.638-0.963l2.645,1.749
					c0.153,0.101,0.356,0.06,0.462-0.095c0.102-0.152,0.059-0.362-0.094-0.463l-2.646-1.752l0.653-0.982
					c0.046-0.076,0.142-0.095,0.213-0.045L70.747,34.086z M70.747,34.086"/>
			</g>
			<path fill="#FFFFFF" d="M70.747,34.086c0.081,0.054,0.104,0.168,0.051,0.247l-16.92,25.582c-0.025,0.039-0.065,0.068-0.109,0.078
				c-0.048,0.009-0.096-0.003-0.136-0.027l-5.365-3.553c-0.039-0.027-0.068-0.066-0.077-0.115c-0.011-0.043,0.001-0.096,0.028-0.134
				l0.396-0.603l3.911,2.591c0.154,0.102,0.361,0.061,0.462-0.093c0.099-0.153,0.061-0.362-0.093-0.462l-3.912-2.593l0.805-1.217
				l2.517,1.67c0.154,0.1,0.362,0.06,0.463-0.094c0.104-0.154,0.063-0.362-0.094-0.465l-2.518-1.668l0.669-1.006l2.515,1.666
				c0.154,0.102,0.362,0.061,0.463-0.092c0.101-0.154,0.059-0.363-0.094-0.465l-2.517-1.666l0.638-0.965l2.517,1.667
				c0.152,0.103,0.36,0.061,0.458-0.094c0.105-0.153,0.063-0.359-0.093-0.462l-2.517-1.669l0.725-1.088l3.907,2.592
				c0.156,0.098,0.364,0.055,0.466-0.097c0.101-0.154,0.06-0.36-0.095-0.465l-3.91-2.588l0.498-0.753l2.641,1.753
				c0.153,0.101,0.361,0.058,0.466-0.096c0.103-0.153,0.06-0.359-0.094-0.463l-2.645-1.752l0.663-1.006l2.647,1.751
				c0.153,0.102,0.356,0.061,0.46-0.095c0.104-0.153,0.062-0.359-0.095-0.462l-2.642-1.753l0.639-0.965l2.642,1.754
				c0.155,0.1,0.36,0.06,0.462-0.095c0.101-0.154,0.059-0.362-0.094-0.463l-2.643-1.752l0.728-1.104l3.912,2.596
				c0.153,0.102,0.36,0.055,0.462-0.099c0.101-0.153,0.06-0.36-0.094-0.462l-3.912-2.591l0.806-1.217l2.52,1.668
				c0.153,0.101,0.358,0.058,0.459-0.094c0.104-0.153,0.061-0.36-0.093-0.464l-2.517-1.666l0.667-1.006l2.516,1.668
				c0.152,0.099,0.359,0.057,0.462-0.094c0.103-0.156,0.062-0.362-0.091-0.464L59.5,39.11l0.638-0.962l2.516,1.664
				c0.154,0.104,0.361,0.061,0.463-0.096c0.101-0.15,0.059-0.357-0.095-0.459l-2.517-1.67l0.721-1.089l3.912,2.591
				c0.152,0.102,0.36,0.06,0.463-0.096c0.102-0.152,0.059-0.358-0.096-0.461l-3.909-2.589l0.498-0.752l2.641,1.751
				c0.153,0.102,0.361,0.059,0.462-0.094c0.104-0.153,0.061-0.362-0.093-0.463l-2.645-1.753l0.665-1.005l2.646,1.75
				c0.154,0.103,0.36,0.059,0.463-0.094c0.101-0.152,0.059-0.36-0.095-0.463l-2.644-1.75l0.638-0.963l2.645,1.749
				c0.153,0.101,0.356,0.06,0.462-0.095c0.102-0.152,0.059-0.362-0.094-0.463l-2.646-1.752l0.653-0.982
				c0.046-0.076,0.142-0.095,0.213-0.045L70.747,34.086z"/>
		</g>
	</g>
	<ellipse opacity="0.1" fill="#808080" cx="84.464" cy="136.172" rx="43.619" ry="2.56"/>
</g>
</svg>
