<?xml version="1.0" encoding="utf-8"?>
<!-- Generator: Adobe Illustrator 16.0.0, SVG Export Plug-In . SVG Version: 6.00 Build 0)  -->
<!DOCTYPE svg PUBLIC "-//W3C//DTD SVG 1.1//EN" "http://www.w3.org/Graphics/SVG/1.1/DTD/svg11.dtd">
<svg version="1.1" id="Layer_1" xmlns="http://www.w3.org/2000/svg" xmlns:xlink="http://www.w3.org/1999/xlink" x="0px" y="0px"
	 width="183px" height="108.357px" viewBox="0 0 183 108.357" enable-background="new 0 0 183 108.357" xml:space="preserve">
<g>
	<path opacity="0.15" fill="#1377E5" d="M51.661,94.553V62.967h16.095v31.586c0,4.436-3.61,8.048-8.049,8.048
		C55.271,102.601,51.661,98.989,51.661,94.553L51.661,94.553z"/>
	<path fill="#FFFFFF" stroke="#F4F4F4" stroke-width="2" stroke-miterlimit="10" d="M135.934,94.553
		c0,4.436-3.611,8.048-8.049,8.048H68.613c1.928-2.132,3.105-4.956,3.105-8.048V21.617h64.216V94.553z"/>
	<g>
		<g>
			<g>
				<g>
					<path fill="#CCCCCC" stroke="#F4F4F4" stroke-width="2" stroke-miterlimit="10" d="M137.915,17.655H69.736
						c-1.095,0-1.98,0.886-1.98,1.98v39.37H49.681c-1.094,0-1.98,0.887-1.98,1.98v33.567c0,6.62,5.386,12.008,12.008,12.008h68.178
						c6.621,0,12.008-5.388,12.008-12.008V19.636C139.895,18.542,139.007,17.655,137.915,17.655L137.915,17.655z M51.661,94.553
						V62.967h16.095v31.586c0,4.436-3.61,8.048-8.049,8.048C55.271,102.601,51.661,98.989,51.661,94.553L51.661,94.553z
						 M135.934,94.553c0,4.436-3.611,8.048-8.049,8.048H68.613c1.928-2.132,3.105-4.956,3.105-8.048V21.617h64.216V94.553z
						 M135.934,94.553"/>
					<path fill="#CCCCCC" stroke="#FFFFFF" stroke-width="2" stroke-miterlimit="10" d="M101.043,40.529h25.382
						c1.094,0,1.98-0.886,1.98-1.979c0-1.093-0.886-1.981-1.98-1.981h-25.382c-1.094,0-1.98,0.888-1.98,1.981
						C99.063,39.643,99.949,40.529,101.043,40.529L101.043,40.529z M101.043,40.529"/>
					<path fill="#CCCCCC" stroke="#FFFFFF" stroke-width="2" stroke-miterlimit="10" d="M101.043,62.284h25.382
						c1.094,0,1.98-0.885,1.98-1.979c0-1.094-0.886-1.98-1.98-1.98h-25.382c-1.094,0-1.98,0.886-1.98,1.98
						C99.063,61.398,99.949,62.284,101.043,62.284L101.043,62.284z M101.043,62.284"/>
					<path fill="#CCCCCC" stroke="#FFFFFF" stroke-width="2" stroke-miterlimit="10" d="M101.043,84.042h25.382
						c1.094,0,1.98-0.888,1.98-1.982c0-1.093-0.886-1.98-1.98-1.98h-25.382c-1.094,0-1.98,0.887-1.98,1.98
						C99.063,83.154,99.949,84.042,101.043,84.042L101.043,84.042z M101.043,84.042"/>
					<path fill="#CCCCCC" stroke="#FFFFFF" stroke-width="2" stroke-miterlimit="10" d="M82.769,42.757
						c0.375,0.396,0.896,0.623,1.441,0.623h0.016c0.55-0.007,1.075-0.24,1.448-0.646l10.875-11.917
						c0.739-0.805,0.681-2.058-0.126-2.797c-0.807-0.737-2.061-0.679-2.797,0.129l-9.44,10.337l-2.939-3.111
						c-0.75-0.795-2.004-0.83-2.8-0.081c-0.794,0.751-0.831,2.005-0.08,2.802L82.769,42.757z M82.769,42.757"/>
					<path fill="#CCCCCC" stroke="#FFFFFF" stroke-width="2" stroke-miterlimit="10" d="M93.625,50.85l-9.44,10.338l-2.939-3.111
						c-0.75-0.795-2.004-0.832-2.8-0.08c-0.794,0.751-0.831,2.003-0.08,2.8l4.403,4.661c0.375,0.396,0.896,0.62,1.441,0.62h0.016
						c0.55-0.004,1.075-0.237,1.448-0.644L96.549,53.52c0.738-0.808,0.681-2.059-0.126-2.797
						C95.615,49.986,94.362,50.042,93.625,50.85L93.625,50.85z M93.625,50.85"/>
					<path fill="#CCCCCC" stroke="#FFFFFF" stroke-width="2" stroke-miterlimit="10" d="M93.625,73.551l-9.44,10.339l-2.939-3.111
						c-0.75-0.796-2.004-0.832-2.8-0.082c-0.794,0.751-0.831,2.004-0.08,2.8l4.403,4.662c0.375,0.396,0.896,0.619,1.441,0.619h0.016
						c0.55-0.003,1.075-0.236,1.448-0.644l10.875-11.914c0.738-0.808,0.681-2.061-0.126-2.798
						C95.615,72.688,94.362,72.744,93.625,73.551L93.625,73.551z M93.625,73.551"/>
				</g>
			</g>
			<path fill="#F4F4F4" stroke="#CCCCCC" stroke-width="2" stroke-miterlimit="10" d="M2,104.775h24.252
				c0,0,2.159-4.557,3.542-4.539c1.372,0.019,3.419,4.539,3.419,4.539h112.705c0,0,2.105-2.91,3.542-3.026
				c1.526-0.123,3.663,3.026,3.663,3.026h7.144c0,0,2.569-5.145,3.542-5.145c0.971,0,3.54,5.145,3.54,5.145H181"/>
		</g>
		<g>
			<path fill="#CCCCCC" d="M48.114,25.253h-2.731v2.728h-0.97v-2.728h-2.718v-0.856h2.718v-2.708h0.97v2.708h2.731V25.253z"/>
		</g>
		<g>
			<path fill="#CCCCCC" d="M34.966,78.12h-2.73v2.728h-0.971V78.12h-2.717v-0.856h2.717v-2.708h0.971v2.708h2.73V78.12z"/>
		</g>
		<g>
			<path fill="#CCCCCC" d="M159.648,71.827h-2.73v2.728h-0.971v-2.728h-2.716V70.97h2.716v-2.708h0.971v2.708h2.73V71.827z"/>
		</g>
		<g>
			<path fill="#CCCCCC" d="M131.615,5.361h-2.731v2.728h-0.97V5.361h-2.718V4.504h2.718V1.796h0.97v2.708h2.731V5.361z"/>
		</g>
	</g>
</g>
</svg>
