<?xml version="1.0" encoding="utf-8"?>
<!-- Generator: Adobe Illustrator 16.0.0, SVG Export Plug-In . SVG Version: 6.00 Build 0)  -->
<!DOCTYPE svg PUBLIC "-//W3C//DTD SVG 1.1//EN" "http://www.w3.org/Graphics/SVG/1.1/DTD/svg11.dtd">
<svg version="1.1" id="Layer_1" xmlns="http://www.w3.org/2000/svg" xmlns:xlink="http://www.w3.org/1999/xlink" x="0px" y="0px"
	 width="17.008px" height="17.008px" viewBox="0 0 17.008 17.008" enable-background="new 0 0 17.008 17.008" xml:space="preserve">
<path fill="#CCCCCC" d="M14.882,2.508h-3.02V1.052c0-0.433-0.353-0.785-0.784-0.785H2.126c-0.432,0-0.784,0.353-0.784,0.785v12.666
	c0,0.433,0.352,0.784,0.784,0.784h3.021v1.457c0,0.432,0.351,0.782,0.783,0.782h8.952c0.434,0,0.784-0.351,0.784-0.782V3.291
	C15.666,2.859,15.315,2.508,14.882,2.508L14.882,2.508z M2.126,13.83c-0.063,0-0.112-0.052-0.112-0.112V1.052
	c0-0.063,0.05-0.114,0.112-0.114h8.952c0.061,0,0.112,0.051,0.112,0.114v12.666c0,0.061-0.051,0.112-0.112,0.112H2.126z
	 M14.995,15.959c0,0.063-0.05,0.111-0.113,0.111H5.93c-0.061,0-0.111-0.049-0.111-0.111v-1.412h5.26
	c0.432,0,0.784-0.352,0.784-0.783v-0.236h1.603c0.185,0,0.335-0.151,0.335-0.338c0-0.185-0.15-0.335-0.335-0.335h-1.603v-1.641
	h1.603c0.185,0,0.335-0.15,0.335-0.335c0-0.188-0.15-0.338-0.335-0.338h-1.603V8.863h1.603c0.185,0,0.335-0.15,0.335-0.335
	c0-0.187-0.15-0.335-0.335-0.335h-1.603V6.579h0.447c0.184,0,0.335-0.149,0.335-0.335s-0.151-0.336-0.335-0.336h-0.447V3.18h3.02
	c0.063,0,0.113,0.051,0.113,0.111V15.959z M2.889,3.624c0-0.186,0.151-0.335,0.336-0.335h5.446c0.186,0,0.336,0.149,0.336,0.335
	c0,0.187-0.15,0.337-0.336,0.337H3.225C3.041,3.961,2.889,3.811,2.889,3.624L2.889,3.624z M10.164,5.908
	c0,0.186-0.149,0.336-0.336,0.336H3.225c-0.185,0-0.336-0.15-0.336-0.336s0.151-0.335,0.336-0.335h6.603
	C10.014,5.573,10.164,5.723,10.164,5.908L10.164,5.908z M10.164,8.258c0,0.186-0.149,0.336-0.336,0.336H3.225
	c-0.185,0-0.336-0.15-0.336-0.336s0.151-0.335,0.336-0.335h6.603C10.014,7.923,10.164,8.072,10.164,8.258L10.164,8.258z
	 M10.164,10.57c0,0.186-0.149,0.337-0.336,0.337H3.225c-0.185,0-0.336-0.151-0.336-0.337c0-0.185,0.151-0.336,0.336-0.336h6.603
	C10.014,10.234,10.164,10.386,10.164,10.57L10.164,10.57z M10.164,10.57"/>
</svg>
