<?xml version="1.0" encoding="utf-8"?>
<!-- Generator: Adobe Illustrator 16.0.0, SVG Export Plug-In . SVG Version: 6.00 Build 0)  -->
<!DOCTYPE svg PUBLIC "-//W3C//DTD SVG 1.1//EN" "http://www.w3.org/Graphics/SVG/1.1/DTD/svg11.dtd">
<svg version="1.1" id="Layer_1" xmlns="http://www.w3.org/2000/svg" xmlns:xlink="http://www.w3.org/1999/xlink" x="0px" y="0px"
	 width="143.835px" height="115.75px" viewBox="0 0 143.835 115.75" enable-background="new 0 0 143.835 115.75"
	 xml:space="preserve">
<g>
	<g>
		<g>
			<g>
				<polygon fill="#CCCCCC" points="120.35,32.093 121.063,37.095 126.066,37.809 121.063,38.525 120.35,43.526 119.637,38.525 
					114.634,37.809 119.637,37.095 				"/>
				<polygon fill="#CCCCCC" points="28.769,14.147 29.184,17.052 32.088,17.468 29.184,17.884 28.769,20.786 28.353,17.884 
					25.449,17.468 28.353,17.052 				"/>
				<polygon fill="#CCCCCC" points="102.208,61.448 102.552,63.852 104.955,64.197 102.552,64.54 102.208,66.946 101.864,64.54 
					99.461,64.197 101.864,63.852 				"/>
				<circle fill="#CCCCCC" cx="139.453" cy="73.45" r="1.914"/>
				<circle fill="#CCCCCC" cx="21.775" cy="83.575" r="1.915"/>
			</g>
		</g>
		<g>
			<path opacity="0.15" fill="#1377E5" d="M72.536,35.655c-3.532,0-6.405-2.875-6.405-6.406c0-3.531,2.873-6.405,6.405-6.405
				c3.531,0,6.405,2.875,6.405,6.405C78.941,32.78,76.067,35.655,72.536,35.655L72.536,35.655z"/>
			<path opacity="0.15" fill="#1377E5" d="M53.479,68.887c0-1.702,0.483-3.361,1.396-4.795l5.927-9.266
				c0.472,4.339,1.003,8.864,1.574,13.364l-8.897,10.875V68.887z"/>
			<path opacity="0.15" fill="#1377E5" d="M91.594,79.065L82.696,68.19c0.57-4.5,1.104-9.025,1.575-13.364l5.925,9.264
				c0.915,1.436,1.397,3.095,1.397,4.797V79.065z"/>
			<g>
				<path fill="#CCCCCC" stroke="#FFFFFF" stroke-miterlimit="10" d="M72.536,20.472c-4.84,0-8.778,3.937-8.778,8.777
					c0,4.84,3.938,8.778,8.778,8.778s8.776-3.938,8.776-8.778C81.313,24.409,77.376,20.472,72.536,20.472L72.536,20.472z
					 M72.536,35.655c-3.532,0-6.405-2.875-6.405-6.406c0-3.531,2.873-6.405,6.405-6.405c3.531,0,6.405,2.875,6.405,6.405
					C78.941,32.78,76.067,35.655,72.536,35.655L72.536,35.655z M72.536,35.655"/>
				<path fill="#CCCCCC" stroke="#FFFFFF" stroke-miterlimit="10" d="M72.536,25.532c-0.655,0-1.187,0.531-1.187,1.186
					c0,0.656,0.531,1.186,1.187,1.186c0.74,0,1.345,0.604,1.345,1.345c0,0.655,0.53,1.187,1.186,1.187
					c0.654,0,1.186-0.532,1.186-1.187C76.252,27.2,74.585,25.532,72.536,25.532L72.536,25.532z M72.536,25.532"/>
				<path fill="#CCCCCC" stroke="#FFFFFF" stroke-miterlimit="10" d="M92.195,62.815l-7.523-11.766
					c1.042-10.123,1.702-18.801,1.702-23.066c0-8.84-3.581-15.172-6.585-18.93c-3.258-4.073-6.506-6.044-6.643-6.126
					c-0.377-0.226-0.846-0.226-1.22,0c-0.138,0.083-3.385,2.053-6.643,6.126c-3.004,3.758-6.587,10.089-6.587,18.93
					c0,4.266,0.661,12.943,1.704,23.066l-7.525,11.768c-1.157,1.816-1.77,3.917-1.77,6.07v13.501c0,0.5,0.314,0.948,0.788,1.117
					c0.13,0.046,0.264,0.069,0.397,0.069c0.35,0,0.688-0.155,0.919-0.435l9.668-11.816c0.67,1.989,2.553,3.394,4.713,3.394h3.758
					v7.671c0,0.655,0.531,1.186,1.187,1.186s1.187-0.531,1.187-1.186v-7.671h3.757c2.162,0,4.045-1.405,4.715-3.394l9.667,11.816
					c0.23,0.28,0.569,0.435,0.918,0.435c0.135,0,0.27-0.022,0.4-0.069c0.471-0.169,0.786-0.616,0.786-1.117V68.887
					C93.966,66.734,93.354,64.635,92.195,62.815L92.195,62.815z M53.479,68.887c0-1.702,0.483-3.361,1.396-4.795l5.927-9.266
					c0.472,4.339,1.003,8.864,1.574,13.364l-8.897,10.875V68.887z M77.479,72.346h-3.757V52.022c0-0.655-0.531-1.186-1.187-1.186
					s-1.187,0.531-1.187,1.186v20.323h-3.758c-1.302,0-2.413-0.978-2.58-2.274c-0.828-6.349-1.581-12.813-2.202-18.787
					c-0.001-0.043-0.007-0.088-0.014-0.132c-1.057-10.182-1.726-18.916-1.726-23.169c0-4.594,1.007-8.858,3.001-12.731h9.729
					c0.655,0,1.188-0.531,1.188-1.187c0-0.655-0.532-1.186-1.188-1.186h-8.355c0.502-0.774,1.045-1.531,1.633-2.27
					c2.194-2.762,4.416-4.5,5.458-5.239c1.293,0.918,4.411,3.391,7.07,7.508h-0.744c-0.654,0-1.187,0.531-1.187,1.186
					c0,0.656,0.532,1.187,1.187,1.187h2.114c1.735,3.378,3.025,7.61,3.025,12.731c0,4.253-0.669,12.987-1.727,23.169
					c-0.006,0.044-0.01,0.088-0.013,0.132c-0.62,5.972-1.372,12.437-2.2,18.787C79.892,71.368,78.782,72.346,77.479,72.346
					L77.479,72.346z M91.594,79.065L82.696,68.19c0.57-4.5,1.104-9.025,1.575-13.364l5.925,9.264
					c0.915,1.436,1.397,3.095,1.397,4.797V79.065z M91.594,79.065"/>
				<rect x="65.417" y="12.361" fill="#CCCCCC" stroke="#FFFFFF" stroke-miterlimit="10" width="12" height="2"/>
			</g>
		</g>
		
			<path fill="#FFFFFF" stroke="#CCCCCC" stroke-width="2" stroke-linecap="round" stroke-linejoin="round" stroke-miterlimit="10" d="
			M79.08,76.878c0,0-2.826,16.395,8.204,24.288"/>
		
			<path fill="#FFFFFF" stroke="#CCCCCC" stroke-width="2" stroke-linecap="round" stroke-linejoin="round" stroke-miterlimit="10" d="
			M66.642,76.878c0,0,2.826,16.395-8.204,24.288"/>
	</g>
	<path fill="#FFFFFF" stroke="#CCCCCC" stroke-width="2" stroke-miterlimit="10" d="M137.627,111.798
		c-2.864-1.509-6.122-2.367-9.584-2.367c-0.86,0-1.706,0.059-2.537,0.161c-2.197-9.542-10.736-16.658-20.944-16.658
		c-8.025,0-15.02,4.401-18.713,10.92c-1.546-0.417-3.173-0.644-4.851-0.644c-5.281,0-10.042,2.204-13.427,5.735
		c-5.162-7.914-14.094-13.147-24.248-13.147c-11.8,0-21.948,7.064-26.451,17.193c-2.61-1.154-5.496-1.799-8.534-1.799
		c-2.037,0-4.004,0.293-5.869,0.831"/>
	<path fill="#FFFFFF" stroke="#CCCCCC" stroke-width="2" stroke-miterlimit="10" d="M43.301,112.252
		c1.776-0.936,3.798-1.468,5.944-1.468c0.533,0,1.058,0.036,1.572,0.1c1.363-5.917,6.659-10.331,12.988-10.331
		c4.977,0,9.315,2.729,11.605,6.772c0.959-0.259,1.967-0.399,3.008-0.399c3.274,0,6.228,1.366,8.326,3.556
		c3.202-4.907,8.739-8.152,15.038-8.152c7.316,0,13.609,4.38,16.402,10.662c1.619-0.715,3.408-1.116,5.294-1.116
		c1.261,0,2.481,0.182,3.639,0.516"/>
</g>
</svg>
