<?xml version="1.0" encoding="utf-8"?>
<!-- Generator: Adobe Illustrator 16.0.0, SVG Export Plug-In . SVG Version: 6.00 Build 0)  -->
<!DOCTYPE svg PUBLIC "-//W3C//DTD SVG 1.1//EN" "http://www.w3.org/Graphics/SVG/1.1/DTD/svg11.dtd">
<svg version="1.1" id="Layer_1" xmlns="http://www.w3.org/2000/svg" xmlns:xlink="http://www.w3.org/1999/xlink" x="0px" y="0px"
	 width="12.729px" height="9.792px" viewBox="0 0 12.729 9.792" enable-background="new 0 0 12.729 9.792" xml:space="preserve">
<path fill="#6EBF21" d="M11.075,0.231h0.05c0.192-0.191,0.481-0.191,0.673,0l0.673,0.673c0.191,0.192,0.191,0.48,0,0.673
	L4.779,9.561C4.683,9.656,4.586,9.704,4.441,9.704c-0.144,0-0.239-0.048-0.336-0.143L0.354,5.52L0.257,5.376
	C0.161,5.281,0.114,5.134,0.114,5.039c0-0.097,0.047-0.239,0.143-0.336L0.93,4.03c0.193-0.192,0.482-0.192,0.675,0L1.65,4.079
	l2.647,2.835c0.096,0.097,0.237,0.097,0.336,0"/>
</svg>
