<?xml version="1.0" encoding="utf-8"?>
<!-- Generator: Adobe Illustrator 16.0.0, SVG Export Plug-In . SVG Version: 6.00 Build 0)  -->
<!DOCTYPE svg PUBLIC "-//W3C//DTD SVG 1.1//EN" "http://www.w3.org/Graphics/SVG/1.1/DTD/svg11.dtd">
<svg version="1.1" id="Layer_1" xmlns="http://www.w3.org/2000/svg" xmlns:xlink="http://www.w3.org/1999/xlink" x="0px" y="0px"
	 width="13.695px" height="8.157px" viewBox="0 0 13.695 8.157" enable-background="new 0 0 13.695 8.157" xml:space="preserve">
<g opacity="0.2">
	<g>
		<defs>
			<rect id="SVGID_1_" x="0.197" y="0.118" width="13.3" height="7.922"/>
		</defs>
		<clipPath id="SVGID_2_">
			<use xlink:href="#SVGID_1_"  overflow="visible"/>
		</clipPath>
		<path clip-path="url(#SVGID_2_)" d="M13.32,3.693c0,0-3.598-3.575-6.479-3.575c-2.88,0-6.478,3.575-6.478,3.575
			c-0.221,0.207-0.223,0.548,0,0.752c0,0,3.598,3.576,6.478,3.576c2.881,0,6.479-3.576,6.479-3.576
			C13.539,4.237,13.542,3.899,13.32,3.693L13.32,3.693z M6.869,6.949c-1.583,0-2.867-1.283-2.867-2.868
			c0-1.586,1.282-2.869,2.867-2.869s2.868,1.285,2.868,2.869C9.737,5.663,8.452,6.949,6.869,6.949L6.869,6.949z M6.869,6.949"/>
	</g>
	<path d="M6.836,2.227c-1.006,0-1.821,0.819-1.821,1.827c0,1.007,0.815,1.827,1.821,1.827s1.822-0.82,1.822-1.827
		C8.658,3.046,7.842,2.227,6.836,2.227L6.836,2.227z M7.521,4.059c-0.311,0-0.564-0.254-0.564-0.569c0-0.316,0.254-0.57,0.564-0.57
		c0.313,0,0.566,0.254,0.566,0.57C8.088,3.805,7.839,4.059,7.521,4.059L7.521,4.059z M7.521,4.059"/>
</g>
</svg>
